<?xml version="1.0" encoding="UTF-8" standalone="no"?>
<!DOCTYPE svg PUBLIC "-//W3C//DTD SVG 1.1//EN"
 "http://www.w3.org/Graphics/SVG/1.1/DTD/svg11.dtd">
<!-- Generated by graphviz version 2.40.1 (20161225.0304)
 -->
<!-- Title: %3 Pages: 1 -->
<svg width="4661pt" height="476pt"
 viewBox="0.00 0.00 4660.58 476.00" xmlns="http://www.w3.org/2000/svg" xmlns:xlink="http://www.w3.org/1999/xlink">
<g id="graph0" class="graph" transform="scale(1 1) rotate(0) translate(4 472)">
<title>%3</title>
<polygon fill="#ffffff" stroke="transparent" points="-4,4 -4,-472 4656.5822,-472 4656.5822,4 -4,4"/>
<!-- N1 -->
<g id="node1" class="node">
<title>N1</title>
<polygon fill="none" stroke="#000000" points="580.3846,-252 292.9273,-252 292.9273,-216 580.3846,-216 580.3846,-252"/>
<text text-anchor="middle" x="436.656" y="-229.8" font-family="Times,serif" font-size="14.00" fill="#000000">github.com/stratumn/alice/core/service/grpcapi</text>
</g>
<!-- N12 -->
<g id="node13" class="node">
<title>N12</title>
<polygon fill="none" stroke="#000000" points="2861.1394,-108 2616.1726,-108 2616.1726,-72 2861.1394,-72 2861.1394,-108"/>
<text text-anchor="middle" x="2738.656" y="-85.8" font-family="Times,serif" font-size="14.00" fill="#000000">github.com/stratumn/alice/grpc/grpcapi</text>
</g>
<!-- N1&#45;&gt;N12 -->
<g id="edge37" class="edge">
<title>N1&#45;&gt;N12</title>
<path fill="none" stroke="#000000" d="M580.5712,-216.5223C582.2755,-216.3455 583.971,-216.1713 585.656,-216 972.5367,-176.6734 1069.5349,-168.194 1457.656,-144 1876.3171,-117.9022 2372.7547,-100.9653 2605.5968,-93.8441"/>
<polygon fill="#000000" stroke="#000000" points="2605.9166,-97.3361 2615.8053,-93.533 2605.7033,-90.3393 2605.9166,-97.3361"/>
</g>
<!-- N27 -->
<g id="node22" class="node">
<title>N27</title>
<polygon fill="none" stroke="#000000" points="562.0674,-180 311.2445,-180 311.2445,-144 562.0674,-144 562.0674,-180"/>
<text text-anchor="middle" x="436.656" y="-157.8" font-family="Times,serif" font-size="14.00" fill="#000000">github.com/stratumn/alice/core/manager</text>
</g>
<!-- N1&#45;&gt;N27 -->
<g id="edge36" class="edge">
<title>N1&#45;&gt;N27</title>
<path fill="none" stroke="#000000" d="M436.656,-215.8314C436.656,-208.131 436.656,-198.9743 436.656,-190.4166"/>
<polygon fill="#000000" stroke="#000000" points="440.1561,-190.4132 436.656,-180.4133 433.1561,-190.4133 440.1561,-190.4132"/>
</g>
<!-- N6 -->
<g id="node24" class="node">
<title>N6</title>
<polygon fill="none" stroke="#000000" points="1680.2497,-180 1467.0622,-180 1467.0622,-144 1680.2497,-144 1680.2497,-180"/>
<text text-anchor="middle" x="1573.656" y="-157.8" font-family="Times,serif" font-size="14.00" fill="#000000">github.com/stratumn/alice/release</text>
</g>
<!-- N1&#45;&gt;N6 -->
<g id="edge38" class="edge">
<title>N1&#45;&gt;N6</title>
<path fill="none" stroke="#000000" d="M580.4297,-217.2605C585.2269,-216.817 589.9793,-216.395 594.656,-216 905.5431,-189.7397 1273.0963,-173.4018 1456.8158,-166.2392"/>
<polygon fill="#000000" stroke="#000000" points="1457.1801,-169.7278 1467.0369,-165.8428 1456.9088,-162.733 1457.1801,-169.7278"/>
</g>
<!-- N15 -->
<g id="node2" class="node">
<title>N15</title>
<polygon fill="none" stroke="#000000" points="4083.867,-108 3839.4449,-108 3839.4449,-72 4083.867,-72 4083.867,-108"/>
<text text-anchor="middle" x="3961.656" y="-85.8" font-family="Times,serif" font-size="14.00" fill="#000000">github.com/stratumn/alice/grpc/metrics</text>
</g>
<!-- N23 -->
<g id="node3" class="node">
<title>N23</title>
<polygon fill="none" stroke="#000000" points="3677.7634,-36 3457.5485,-36 3457.5485,0 3677.7634,0 3677.7634,-36"/>
<text text-anchor="middle" x="3567.656" y="-13.8" font-family="Times,serif" font-size="14.00" fill="#000000">github.com/stratumn/alice/grpc/ext</text>
</g>
<!-- N15&#45;&gt;N23 -->
<g id="edge1" class="edge">
<title>N15&#45;&gt;N23</title>
<path fill="none" stroke="#000000" d="M3862.9957,-71.9707C3806.2181,-61.5951 3734.7828,-48.5409 3676.3903,-37.8702"/>
<polygon fill="#000000" stroke="#000000" points="3676.8587,-34.3979 3666.3924,-36.0432 3675.6003,-41.2839 3676.8587,-34.3979"/>
</g>
<!-- N9 -->
<g id="node4" class="node">
<title>N9</title>
<polygon fill="none" stroke="#000000" points="2793.3465,-252 2513.9655,-252 2513.9655,-216 2793.3465,-216 2793.3465,-252"/>
<text text-anchor="middle" x="2653.656" y="-229.8" font-family="Times,serif" font-size="14.00" fill="#000000">github.com/stratumn/alice/core/service/signal</text>
</g>
<!-- N25 -->
<g id="node26" class="node">
<title>N25</title>
<polygon fill="none" stroke="#000000" points="2998.7634,-180 2778.5485,-180 2778.5485,-144 2998.7634,-144 2998.7634,-180"/>
<text text-anchor="middle" x="2888.656" y="-157.8" font-family="Times,serif" font-size="14.00" fill="#000000">github.com/stratumn/alice/core/log</text>
</g>
<!-- N9&#45;&gt;N25 -->
<g id="edge40" class="edge">
<title>N9&#45;&gt;N25</title>
<path fill="none" stroke="#000000" d="M2712.6531,-215.9243C2745.198,-205.9531 2785.7821,-193.5188 2819.7748,-183.104"/>
<polygon fill="#000000" stroke="#000000" points="2821.0986,-186.3591 2829.6346,-180.0831 2819.048,-179.6662 2821.0986,-186.3591"/>
</g>
<!-- N18 -->
<g id="node5" class="node">
<title>N18</title>
<polygon fill="none" stroke="#000000" points="3821.998,-108 3595.3139,-108 3595.3139,-72 3821.998,-72 3821.998,-108"/>
<text text-anchor="middle" x="3708.656" y="-85.8" font-family="Times,serif" font-size="14.00" fill="#000000">github.com/stratumn/alice/grpc/host</text>
</g>
<!-- N18&#45;&gt;N23 -->
<g id="edge39" class="edge">
<title>N18&#45;&gt;N23</title>
<path fill="none" stroke="#000000" d="M3673.0757,-71.8314C3654.6235,-62.4089 3631.9014,-50.8062 3612.283,-40.7883"/>
<polygon fill="#000000" stroke="#000000" points="3613.7226,-37.5935 3603.2248,-36.1628 3610.5392,-43.8278 3613.7226,-37.5935"/>
</g>
<!-- N24 -->
<g id="node6" class="node">
<title>N24</title>
<polygon fill="none" stroke="#000000" points="461.8875,-324 273.4244,-324 273.4244,-288 461.8875,-288 461.8875,-324"/>
<text text-anchor="middle" x="367.656" y="-301.8" font-family="Times,serif" font-size="14.00" fill="#000000">github.com/stratumn/alice/cli</text>
</g>
<!-- N24&#45;&gt;N23 -->
<g id="edge27" class="edge">
<title>N24&#45;&gt;N23</title>
<path fill="none" stroke="#000000" d="M273.1661,-298.1656C172.3841,-288.831 24.8483,-271.9636 7.656,-252 -2.7849,-239.8762 -2.2259,-228.5837 7.656,-216 93.9837,-106.0684 668.544,-91.7939 980.656,-72 1469.8261,-40.9772 3004.8012,-23.6059 3447.2136,-19.1542"/>
<polygon fill="#000000" stroke="#000000" points="3447.4957,-22.6516 3457.4601,-19.0514 3447.4254,-15.652 3447.4957,-22.6516"/>
</g>
<!-- N4 -->
<g id="node23" class="node">
<title>N4</title>
<polygon fill="none" stroke="#000000" points="236.7497,-252 16.5622,-252 16.5622,-216 236.7497,-216 236.7497,-252"/>
<text text-anchor="middle" x="126.656" y="-229.8" font-family="Times,serif" font-size="14.00" fill="#000000">github.com/stratumn/alice/core/cfg</text>
</g>
<!-- N24&#45;&gt;N4 -->
<g id="edge26" class="edge">
<title>N24&#45;&gt;N4</title>
<path fill="none" stroke="#000000" d="M307.1526,-287.9243C273.6335,-277.9103 231.799,-265.412 196.8473,-254.97"/>
<polygon fill="#000000" stroke="#000000" points="197.7677,-251.5922 187.1843,-252.0831 195.7639,-258.2993 197.7677,-251.5922"/>
</g>
<!-- N24&#45;&gt;N6 -->
<g id="edge28" class="edge">
<title>N24&#45;&gt;N6</title>
<path fill="none" stroke="#000000" d="M461.7746,-294.2306C502.8443,-286.3466 550.4628,-273.3347 589.656,-252 610.0892,-240.8772 606.2984,-225.2243 627.656,-216 701.9106,-183.9295 1220.4254,-169.2639 1456.7569,-164.189"/>
<polygon fill="#000000" stroke="#000000" points="1456.8405,-167.6881 1466.7638,-163.9762 1456.6916,-160.6897 1456.8405,-167.6881"/>
</g>
<!-- N26 -->
<g id="node7" class="node">
<title>N26</title>
<polygon fill="none" stroke="#000000" points="3436.5085,-252 3152.8034,-252 3152.8034,-216 3436.5085,-216 3436.5085,-252"/>
<text text-anchor="middle" x="3294.656" y="-229.8" font-family="Times,serif" font-size="14.00" fill="#000000">github.com/stratumn/alice/core/service/kaddht</text>
</g>
<!-- N28 -->
<g id="node8" class="node">
<title>N28</title>
<polygon fill="none" stroke="#000000" points="4024.2429,-252 3755.069,-252 3755.069,-216 4024.2429,-216 4024.2429,-252"/>
<text text-anchor="middle" x="3889.656" y="-229.8" font-family="Times,serif" font-size="14.00" fill="#000000">github.com/stratumn/alice/core/service/host</text>
</g>
<!-- N28&#45;&gt;N18 -->
<g id="edge30" class="edge">
<title>N28&#45;&gt;N18</title>
<path fill="none" stroke="#000000" d="M3866.7322,-215.7623C3834.5,-190.119 3775.6979,-143.3372 3739.6097,-114.6262"/>
<polygon fill="#000000" stroke="#000000" points="3741.3982,-111.5765 3731.3936,-108.0896 3737.0401,-117.0544 3741.3982,-111.5765"/>
</g>
<!-- N0 -->
<g id="node9" class="node">
<title>N0</title>
<polygon fill="none" stroke="#000000" points="2182.5085,-252 1884.8034,-252 1884.8034,-216 2182.5085,-216 2182.5085,-252"/>
<text text-anchor="middle" x="2033.656" y="-229.8" font-family="Times,serif" font-size="14.00" fill="#000000">github.com/stratumn/alice/core/service/bootstrap</text>
</g>
<!-- N0&#45;&gt;N6 -->
<g id="edge34" class="edge">
<title>N0&#45;&gt;N6</title>
<path fill="none" stroke="#000000" d="M1918.4688,-215.9707C1848.8423,-205.0726 1760.3358,-191.2195 1690.4259,-180.277"/>
<polygon fill="#000000" stroke="#000000" points="1690.6717,-176.773 1680.2507,-178.6844 1689.5892,-183.6888 1690.6717,-176.773"/>
</g>
<!-- N10 -->
<g id="node10" class="node">
<title>N10</title>
<polygon fill="none" stroke="#000000" points="4652.5085,-252 4368.8034,-252 4368.8034,-216 4652.5085,-216 4652.5085,-252"/>
<text text-anchor="middle" x="4510.656" y="-229.8" font-family="Times,serif" font-size="14.00" fill="#000000">github.com/stratumn/alice/core/service/yamux</text>
</g>
<!-- N21 -->
<g id="node11" class="node">
<title>N21</title>
<polygon fill="none" stroke="#000000" points="918.9432,-252 636.3687,-252 636.3687,-216 918.9432,-216 918.9432,-252"/>
<text text-anchor="middle" x="777.656" y="-229.8" font-family="Times,serif" font-size="14.00" fill="#000000">github.com/stratumn/alice/core/service/pruner</text>
</g>
<!-- N7 -->
<g id="node12" class="node">
<title>N7</title>
<polygon fill="none" stroke="#000000" points="2289.9844,-324 2091.3276,-324 2091.3276,-288 2289.9844,-288 2289.9844,-324"/>
<text text-anchor="middle" x="2190.656" y="-301.8" font-family="Times,serif" font-size="14.00" fill="#000000">github.com/stratumn/alice/core</text>
</g>
<!-- N7&#45;&gt;N1 -->
<g id="edge11" class="edge">
<title>N7&#45;&gt;N1</title>
<path fill="none" stroke="#000000" d="M2091.3519,-304.6158C1843.9168,-300.7217 1180.0672,-287.5409 627.656,-252 615.5916,-251.2238 603.1087,-250.3059 590.5685,-249.302"/>
<polygon fill="#000000" stroke="#000000" points="590.7579,-245.8059 580.506,-248.4795 590.1876,-252.7826 590.7579,-245.8059"/>
</g>
<!-- N7&#45;&gt;N9 -->
<g id="edge21" class="edge">
<title>N7&#45;&gt;N9</title>
<path fill="none" stroke="#000000" d="M2289.9811,-290.5542C2359.5307,-279.7387 2453.0165,-265.201 2527.7879,-253.5734"/>
<polygon fill="#000000" stroke="#000000" points="2528.3987,-257.0206 2537.7421,-252.0255 2527.323,-250.1037 2528.3987,-257.0206"/>
</g>
<!-- N7&#45;&gt;N26 -->
<g id="edge14" class="edge">
<title>N7&#45;&gt;N26</title>
<path fill="none" stroke="#000000" d="M2290.0817,-302.2352C2462.8687,-295.2684 2829.6748,-278.6034 3138.656,-252 3139.9547,-251.8882 3141.2593,-251.7743 3142.5691,-251.6584"/>
<polygon fill="#000000" stroke="#000000" points="3143.0623,-255.128 3152.7025,-250.7328 3142.4256,-248.157 3143.0623,-255.128"/>
</g>
<!-- N7&#45;&gt;N28 -->
<g id="edge12" class="edge">
<title>N7&#45;&gt;N28</title>
<path fill="none" stroke="#000000" d="M2290.0566,-303.7294C2583.2402,-296.8473 3442.3061,-275.3074 3744.8715,-252.0908"/>
<polygon fill="#000000" stroke="#000000" points="3745.2685,-255.5705 3754.9642,-251.2991 3744.721,-248.592 3745.2685,-255.5705"/>
</g>
<!-- N7&#45;&gt;N0 -->
<g id="edge9" class="edge">
<title>N7&#45;&gt;N0</title>
<path fill="none" stroke="#000000" d="M2151.0382,-287.8314C2130.1337,-278.2446 2104.3076,-266.4008 2082.2071,-256.2655"/>
<polygon fill="#000000" stroke="#000000" points="2083.5376,-253.0252 2072.9888,-252.038 2080.6195,-259.388 2083.5376,-253.0252"/>
</g>
<!-- N7&#45;&gt;N10 -->
<g id="edge23" class="edge">
<title>N7&#45;&gt;N10</title>
<path fill="none" stroke="#000000" d="M2289.9066,-304.767C2655.6926,-300.0314 3928.9681,-281.8052 4358.4403,-252.0363"/>
<polygon fill="#000000" stroke="#000000" points="4358.699,-255.5269 4368.4275,-251.331 4358.2057,-248.5442 4358.699,-255.5269"/>
</g>
<!-- N7&#45;&gt;N21 -->
<g id="edge19" class="edge">
<title>N7&#45;&gt;N21</title>
<path fill="none" stroke="#000000" d="M2091.431,-304.3445C1879.7541,-300.2489 1368.0564,-287.3474 928.9799,-252.072"/>
<polygon fill="#000000" stroke="#000000" points="929.1969,-248.5783 918.9474,-251.2611 928.6329,-255.5555 929.1969,-248.5783"/>
</g>
<!-- N19 -->
<g id="node14" class="node">
<title>N19</title>
<polygon fill="none" stroke="#000000" points="4152.112,-180 3865.1999,-180 3865.1999,-144 4152.112,-144 4152.112,-180"/>
<text text-anchor="middle" x="4008.656" y="-157.8" font-family="Times,serif" font-size="14.00" fill="#000000">github.com/stratumn/alice/core/service/metrics</text>
</g>
<!-- N7&#45;&gt;N19 -->
<g id="edge15" class="edge">
<title>N7&#45;&gt;N19</title>
<path fill="none" stroke="#000000" d="M2289.8556,-304.9483C2668.4907,-300.7022 4003.0447,-283.5213 4033.656,-252 4050.0173,-235.1522 4039.8668,-208.5642 4027.9641,-188.6478"/>
<polygon fill="#000000" stroke="#000000" points="4030.7914,-186.5719 4022.461,-180.0255 4024.8907,-190.338 4030.7914,-186.5719"/>
</g>
<!-- N20 -->
<g id="node15" class="node">
<title>N20</title>
<polygon fill="none" stroke="#000000" points="1229.0811,-252 936.2308,-252 936.2308,-216 1229.0811,-216 1229.0811,-252"/>
<text text-anchor="middle" x="1082.656" y="-229.8" font-family="Times,serif" font-size="14.00" fill="#000000">github.com/stratumn/alice/core/service/mssmux</text>
</g>
<!-- N7&#45;&gt;N20 -->
<g id="edge16" class="edge">
<title>N7&#45;&gt;N20</title>
<path fill="none" stroke="#000000" d="M2091.3949,-302.3065C1919.8446,-295.4965 1556.5803,-279.2017 1239.3926,-252.1227"/>
<polygon fill="#000000" stroke="#000000" points="1239.3391,-248.6053 1229.0763,-251.2367 1238.7401,-255.5796 1239.3391,-248.6053"/>
</g>
<!-- N29 -->
<g id="node17" class="node">
<title>N29</title>
<polygon fill="none" stroke="#000000" points="1520.3846,-252 1246.9273,-252 1246.9273,-216 1520.3846,-216 1520.3846,-252"/>
<text text-anchor="middle" x="1383.656" y="-229.8" font-family="Times,serif" font-size="14.00" fill="#000000">github.com/stratumn/alice/core/service/relay</text>
</g>
<!-- N7&#45;&gt;N29 -->
<g id="edge20" class="edge">
<title>N7&#45;&gt;N29</title>
<path fill="none" stroke="#000000" d="M2091.4327,-299.173C1964.1111,-290.1243 1736.1621,-272.9529 1530.5008,-252.0632"/>
<polygon fill="#000000" stroke="#000000" points="1530.7185,-248.5673 1520.4148,-251.0338 1530.0077,-255.5311 1530.7185,-248.5673"/>
</g>
<!-- N8 -->
<g id="node18" class="node">
<title>N8</title>
<polygon fill="none" stroke="#000000" points="4350.7949,-252 4080.517,-252 4080.517,-216 4350.7949,-216 4350.7949,-252"/>
<text text-anchor="middle" x="4215.656" y="-229.8" font-family="Times,serif" font-size="14.00" fill="#000000">github.com/stratumn/alice/core/service/ping</text>
</g>
<!-- N7&#45;&gt;N8 -->
<g id="edge18" class="edge">
<title>N7&#45;&gt;N8</title>
<path fill="none" stroke="#000000" d="M2290.0787,-304.3402C2625.8727,-298.5455 3716.4471,-278.1388 4066.656,-252 4067.9349,-251.9045 4069.2196,-251.8061 4070.5096,-251.7048"/>
<polygon fill="#000000" stroke="#000000" points="4070.8141,-255.1917 4080.4898,-250.8754 4070.2343,-248.2157 4070.8141,-255.1917"/>
</g>
<!-- N14 -->
<g id="node19" class="node">
<title>N14</title>
<polygon fill="none" stroke="#000000" points="1828.4501,-252 1538.8619,-252 1538.8619,-216 1828.4501,-216 1828.4501,-252"/>
<text text-anchor="middle" x="1683.656" y="-229.8" font-family="Times,serif" font-size="14.00" fill="#000000">github.com/stratumn/alice/core/service/identify</text>
</g>
<!-- N7&#45;&gt;N14 -->
<g id="edge13" class="edge">
<title>N7&#45;&gt;N14</title>
<path fill="none" stroke="#000000" d="M2091.396,-291.9039C2014.1678,-280.9366 1906.1293,-265.5939 1820.6649,-253.4569"/>
<polygon fill="#000000" stroke="#000000" points="1821.0155,-249.9716 1810.6227,-252.0308 1820.0313,-256.9021 1821.0155,-249.9716"/>
</g>
<!-- N7&#45;&gt;N27 -->
<g id="edge8" class="edge">
<title>N7&#45;&gt;N27</title>
<path fill="none" stroke="#000000" d="M2091.3331,-305.0475C1704.1025,-301.1019 315.4355,-284.6922 283.656,-252 254.4559,-221.9614 299.4076,-198.4471 347.9945,-182.9981"/>
<polygon fill="#000000" stroke="#000000" points="349.2012,-186.2891 357.7395,-180.0163 347.153,-179.5955 349.2012,-186.2891"/>
</g>
<!-- N7&#45;&gt;N4 -->
<g id="edge6" class="edge">
<title>N7&#45;&gt;N4</title>
<path fill="none" stroke="#000000" d="M2091.4127,-304.7655C1748.3416,-300.2589 613.7268,-283.2981 250.656,-252 249.3759,-251.8897 248.0889,-251.7748 246.796,-251.6558"/>
<polygon fill="#000000" stroke="#000000" points="247.08,-248.1669 236.7838,-250.6647 246.3904,-255.1328 247.08,-248.1669"/>
</g>
<!-- N7&#45;&gt;N6 -->
<g id="edge24" class="edge">
<title>N7&#45;&gt;N6</title>
<path fill="none" stroke="#000000" d="M2091.3316,-295.3297C2013.6034,-285.8109 1912.6825,-270.5332 1875.656,-252 1854.8521,-241.5869 1858.2907,-226.7445 1837.656,-216 1811.8165,-202.5454 1748.634,-189.4012 1690.5593,-179.4499"/>
<polygon fill="#000000" stroke="#000000" points="1690.9834,-175.972 1680.5397,-177.7554 1689.8161,-182.874 1690.9834,-175.972"/>
</g>
<!-- N17 -->
<g id="node25" class="node">
<title>N17</title>
<polygon fill="none" stroke="#000000" points="2496.171,-252 2201.1409,-252 2201.1409,-216 2496.171,-216 2496.171,-252"/>
<text text-anchor="middle" x="2348.656" y="-229.8" font-family="Times,serif" font-size="14.00" fill="#000000">github.com/stratumn/alice/core/service/connmgr</text>
</g>
<!-- N7&#45;&gt;N17 -->
<g id="edge10" class="edge">
<title>N7&#45;&gt;N17</title>
<path fill="none" stroke="#000000" d="M2230.526,-287.8314C2251.5637,-278.2446 2277.5543,-266.4008 2299.7955,-256.2655"/>
<polygon fill="#000000" stroke="#000000" points="2301.4242,-259.3697 2309.0726,-252.038 2298.5215,-252.9999 2301.4242,-259.3697"/>
</g>
<!-- N7&#45;&gt;N25 -->
<g id="edge7" class="edge">
<title>N7&#45;&gt;N25</title>
<path fill="none" stroke="#000000" d="M2290.2192,-303.7507C2521.5866,-298.0384 3078.0255,-281.3092 3105.656,-252 3144.2546,-211.0563 3078.2241,-188.1041 3009.1285,-175.643"/>
<polygon fill="#000000" stroke="#000000" points="3009.3738,-172.1336 2998.9239,-173.8797 3008.1819,-179.0314 3009.3738,-172.1336"/>
</g>
<!-- N2 -->
<g id="node27" class="node">
<title>N2</title>
<polygon fill="none" stroke="#000000" points="3096.5605,-252 2810.7514,-252 2810.7514,-216 3096.5605,-216 3096.5605,-252"/>
<text text-anchor="middle" x="2953.656" y="-229.8" font-family="Times,serif" font-size="14.00" fill="#000000">github.com/stratumn/alice/core/service/natmgr</text>
</g>
<!-- N7&#45;&gt;N2 -->
<g id="edge17" class="edge">
<title>N7&#45;&gt;N2</title>
<path fill="none" stroke="#000000" d="M2289.8547,-298.1871C2408.8488,-288.6021 2614.639,-271.3499 2800.6393,-252.1954"/>
<polygon fill="#000000" stroke="#000000" points="2801.0166,-255.6751 2810.6038,-251.1654 2800.2969,-248.7122 2801.0166,-255.6751"/>
</g>
<!-- N5 -->
<g id="node29" class="node">
<title>N5</title>
<polygon fill="none" stroke="#000000" points="3737.2292,-252 3454.0827,-252 3454.0827,-216 3737.2292,-216 3737.2292,-252"/>
<text text-anchor="middle" x="3595.656" y="-229.8" font-family="Times,serif" font-size="14.00" fill="#000000">github.com/stratumn/alice/core/service/swarm</text>
</g>
<!-- N7&#45;&gt;N5 -->
<g id="edge22" class="edge">
<title>N7&#45;&gt;N5</title>
<path fill="none" stroke="#000000" d="M2290.0577,-304.3032C2500.8338,-300.1426 3008.3499,-287.1473 3443.6952,-252.1266"/>
<polygon fill="#000000" stroke="#000000" points="3444.2804,-255.5908 3453.9654,-251.2952 3443.7156,-248.6136 3444.2804,-255.5908"/>
</g>
<!-- N12&#45;&gt;N23 -->
<g id="edge29" class="edge">
<title>N12&#45;&gt;N23</title>
<path fill="none" stroke="#000000" d="M2861.4238,-79.3374C3019.0936,-65.6435 3290.9925,-42.0287 3447.4253,-28.4422"/>
<polygon fill="#000000" stroke="#000000" points="3447.9002,-31.9142 3457.5599,-27.562 3447.2945,-24.9405 3447.9002,-31.9142"/>
</g>
<!-- N19&#45;&gt;N15 -->
<g id="edge31" class="edge">
<title>N19&#45;&gt;N15</title>
<path fill="none" stroke="#000000" d="M3996.7959,-143.8314C3991.493,-135.7079 3985.1323,-125.9637 3979.2887,-117.0118"/>
<polygon fill="#000000" stroke="#000000" points="3982.0728,-114.8739 3973.6757,-108.4133 3976.2112,-118.7003 3982.0728,-114.8739"/>
</g>
<!-- N13 -->
<g id="node16" class="node">
<title>N13</title>
<polygon fill="none" stroke="#000000" points="3701.9843,-180 3461.3276,-180 3461.3276,-144 3701.9843,-144 3701.9843,-180"/>
<text text-anchor="middle" x="3581.656" y="-157.8" font-family="Times,serif" font-size="14.00" fill="#000000">github.com/stratumn/alice/grpc/swarm</text>
</g>
<!-- N13&#45;&gt;N23 -->
<g id="edge5" class="edge">
<title>N13&#45;&gt;N23</title>
<path fill="none" stroke="#000000" d="M3579.8829,-143.7623C3577.495,-119.201 3573.2217,-75.2474 3570.4126,-46.3541"/>
<polygon fill="#000000" stroke="#000000" points="3573.866,-45.704 3569.4147,-36.0896 3566.8988,-46.3814 3573.866,-45.704"/>
</g>
<!-- N16 -->
<g id="node20" class="node">
<title>N16</title>
<polygon fill="none" stroke="#000000" points="4329.5495,-108 4101.7624,-108 4101.7624,-72 4329.5495,-72 4329.5495,-108"/>
<text text-anchor="middle" x="4215.656" y="-85.8" font-family="Times,serif" font-size="14.00" fill="#000000">github.com/stratumn/alice/grpc/ping</text>
</g>
<!-- N8&#45;&gt;N16 -->
<g id="edge3" class="edge">
<title>N8&#45;&gt;N16</title>
<path fill="none" stroke="#000000" d="M4215.656,-215.7623C4215.656,-191.201 4215.656,-147.2474 4215.656,-118.3541"/>
<polygon fill="#000000" stroke="#000000" points="4219.1561,-118.0896 4215.656,-108.0896 4212.1561,-118.0897 4219.1561,-118.0896"/>
</g>
<!-- N16&#45;&gt;N23 -->
<g id="edge25" class="edge">
<title>N16&#45;&gt;N23</title>
<path fill="none" stroke="#000000" d="M4101.7572,-73.1567C4098.6924,-72.7598 4095.6542,-72.3734 4092.656,-72 3954.1456,-54.7497 3794.5778,-38.9081 3688.0599,-28.9069"/>
<polygon fill="#000000" stroke="#000000" points="3688.2026,-25.4051 3677.9198,-27.9574 3687.55,-32.3746 3688.2026,-25.4051"/>
</g>
<!-- N22 -->
<g id="node21" class="node">
<title>N22</title>
<polygon fill="none" stroke="#000000" points="1165.005,-468 994.307,-468 994.307,-432 1165.005,-432 1165.005,-468"/>
<text text-anchor="middle" x="1079.656" y="-445.8" font-family="Times,serif" font-size="14.00" fill="#000000">github.com/stratumn/alice</text>
</g>
<!-- N11 -->
<g id="node30" class="node">
<title>N11</title>
<polygon fill="none" stroke="#000000" points="1178.9981,-396 980.3139,-396 980.3139,-360 1178.9981,-360 1178.9981,-396"/>
<text text-anchor="middle" x="1079.656" y="-373.8" font-family="Times,serif" font-size="14.00" fill="#000000">github.com/stratumn/alice/cmd</text>
</g>
<!-- N22&#45;&gt;N11 -->
<g id="edge35" class="edge">
<title>N22&#45;&gt;N11</title>
<path fill="none" stroke="#000000" d="M1079.656,-431.8314C1079.656,-424.131 1079.656,-414.9743 1079.656,-406.4166"/>
<polygon fill="#000000" stroke="#000000" points="1083.1561,-406.4132 1079.656,-396.4133 1076.1561,-406.4133 1083.1561,-406.4132"/>
</g>
<!-- N3 -->
<g id="node28" class="node">
<title>N3</title>
<polygon fill="none" stroke="#000000" points="1241.3533,-108 989.9586,-108 989.9586,-72 1241.3533,-72 1241.3533,-108"/>
<text text-anchor="middle" x="1115.656" y="-85.8" font-family="Times,serif" font-size="14.00" fill="#000000">github.com/stratumn/alice/grpc/manager</text>
</g>
<!-- N27&#45;&gt;N3 -->
<g id="edge2" class="edge">
<title>N27&#45;&gt;N3</title>
<path fill="none" stroke="#000000" d="M561.9863,-148.7102C680.5087,-136.1423 857.8914,-117.3329 979.7634,-104.4098"/>
<polygon fill="#000000" stroke="#000000" points="980.3325,-107.8692 989.9076,-103.3341 979.5943,-100.9082 980.3325,-107.8692"/>
</g>
<!-- N3&#45;&gt;N23 -->
<g id="edge41" class="edge">
<title>N3&#45;&gt;N23</title>
<path fill="none" stroke="#000000" d="M1241.4712,-86.3056C1664.4674,-73.8848 3031.9931,-33.7291 3447.0815,-21.5405"/>
<polygon fill="#000000" stroke="#000000" points="3447.4104,-25.0325 3457.3034,-21.2404 3447.2049,-18.0355 3447.4104,-25.0325"/>
</g>
<!-- N5&#45;&gt;N13 -->
<g id="edge4" class="edge">
<title>N5&#45;&gt;N13</title>
<path fill="none" stroke="#000000" d="M3592.1232,-215.8314C3590.6259,-208.131 3588.8454,-198.9743 3587.1814,-190.4166"/>
<polygon fill="#000000" stroke="#000000" points="3590.5807,-189.5614 3585.2363,-180.4133 3583.7094,-190.8975 3590.5807,-189.5614"/>
</g>
<!-- N11&#45;&gt;N24 -->
<g id="edge32" class="edge">
<title>N11&#45;&gt;N24</title>
<path fill="none" stroke="#000000" d="M980.2808,-367.9508C846.2528,-354.3974 608.6528,-330.3705 472.0799,-316.5597"/>
<polygon fill="#000000" stroke="#000000" points="472.3211,-313.0664 462.0197,-315.5424 471.6168,-320.0308 472.3211,-313.0664"/>
</g>
<!-- N11&#45;&gt;N7 -->
<g id="edge33" class="edge">
<title>N11&#45;&gt;N7</title>
<path fill="none" stroke="#000000" d="M1179.2275,-371.5471C1386.9765,-358.0836 1865.2081,-327.0911 2081.2217,-313.0921"/>
<polygon fill="#000000" stroke="#000000" points="2081.555,-316.5779 2091.3077,-312.4384 2081.1022,-309.5925 2081.555,-316.5779"/>
</g>
</g>
</svg>
