<?xml version="1.0" encoding="UTF-8" standalone="no"?>
<!DOCTYPE svg PUBLIC "-//W3C//DTD SVG 1.1//EN"
 "http://www.w3.org/Graphics/SVG/1.1/DTD/svg11.dtd">
<!-- Generated by graphviz version 2.40.1 (20161225.0304)
 -->
<!-- Title: %3 Pages: 1 -->
<svg width="4580pt" height="476pt"
 viewBox="0.00 0.00 4579.66 476.00" xmlns="http://www.w3.org/2000/svg" xmlns:xlink="http://www.w3.org/1999/xlink">
<g id="graph0" class="graph" transform="scale(1 1) rotate(0) translate(4 472)">
<title>%3</title>
<polygon fill="#ffffff" stroke="transparent" points="-4,4 -4,-472 4575.6626,-472 4575.6626,4 -4,4"/>
<!-- N13 -->
<g id="node1" class="node">
<title>N13</title>
<polygon fill="none" stroke="#000000" points="4252.5132,-252 3962.353,-252 3962.353,-216 4252.5132,-216 4252.5132,-252"/>
<text text-anchor="middle" x="4107.4331" y="-229.8" font-family="Times,serif" font-size="14.00" fill="#000000">github.com/stratumn/alice/core/service/bootstrap</text>
</g>
<!-- N22 -->
<g id="node32" class="node">
<title>N22</title>
<polygon fill="none" stroke="#000000" points="4296.2546,-180 4090.6116,-180 4090.6116,-144 4296.2546,-144 4296.2546,-180"/>
<text text-anchor="middle" x="4193.4331" y="-157.8" font-family="Times,serif" font-size="14.00" fill="#000000">github.com/stratumn/alice/release</text>
</g>
<!-- N13&#45;&gt;N22 -->
<g id="edge29" class="edge">
<title>N13&#45;&gt;N22</title>
<path fill="none" stroke="#000000" d="M4129.1345,-215.8314C4139.6252,-207.0485 4152.3786,-196.3712 4163.7525,-186.8489"/>
<polygon fill="#000000" stroke="#000000" points="4166.3178,-189.2659 4171.7386,-180.1628 4161.8242,-183.8986 4166.3178,-189.2659"/>
</g>
<!-- N20 -->
<g id="node2" class="node">
<title>N20</title>
<polygon fill="none" stroke="#000000" points="1647.3583,-108 1403.5079,-108 1403.5079,-72 1647.3583,-72 1647.3583,-108"/>
<text text-anchor="middle" x="1525.4331" y="-85.8" font-family="Times,serif" font-size="14.00" fill="#000000">github.com/stratumn/alice/grpc/manager</text>
</g>
<!-- N19 -->
<g id="node11" class="node">
<title>N19</title>
<polygon fill="none" stroke="#000000" points="879.7683,-36 667.0979,-36 667.0979,0 879.7683,0 879.7683,-36"/>
<text text-anchor="middle" x="773.4331" y="-13.8" font-family="Times,serif" font-size="14.00" fill="#000000">github.com/stratumn/alice/grpc/ext</text>
</g>
<!-- N20&#45;&gt;N19 -->
<g id="edge3" class="edge">
<title>N20&#45;&gt;N19</title>
<path fill="none" stroke="#000000" d="M1403.668,-72.9485C1400.8981,-72.6226 1398.1501,-72.3058 1395.4331,-72 1219.5104,-52.1973 1014.8856,-35.6826 889.7896,-26.3209"/>
<polygon fill="#000000" stroke="#000000" points="890.0361,-22.8296 879.8035,-25.5761 889.5155,-29.8102 890.0361,-22.8296"/>
</g>
<!-- N21 -->
<g id="node3" class="node">
<title>N21</title>
<polygon fill="none" stroke="#000000" points="556.2341,-252 280.6322,-252 280.6322,-216 556.2341,-216 556.2341,-252"/>
<text text-anchor="middle" x="418.4331" y="-229.8" font-family="Times,serif" font-size="14.00" fill="#000000">github.com/stratumn/alice/core/service/swarm</text>
</g>
<!-- N1 -->
<g id="node15" class="node">
<title>N1</title>
<polygon fill="none" stroke="#000000" points="391.4892,-108 159.377,-108 159.377,-72 391.4892,-72 391.4892,-108"/>
<text text-anchor="middle" x="275.4331" y="-85.8" font-family="Times,serif" font-size="14.00" fill="#000000">github.com/stratumn/alice/grpc/swarm</text>
</g>
<!-- N21&#45;&gt;N1 -->
<g id="edge44" class="edge">
<title>N21&#45;&gt;N1</title>
<path fill="none" stroke="#000000" d="M400.3221,-215.7623C375.0718,-190.3354 329.1825,-144.1253 300.6139,-115.3569"/>
<polygon fill="#000000" stroke="#000000" points="302.927,-112.7191 293.3971,-108.0896 297.96,-117.6516 302.927,-112.7191"/>
</g>
<!-- N15 -->
<g id="node28" class="node">
<title>N15</title>
<polygon fill="none" stroke="#000000" points="724.1168,-180 444.7495,-180 444.7495,-144 724.1168,-144 724.1168,-180"/>
<text text-anchor="middle" x="584.4331" y="-157.8" font-family="Times,serif" font-size="14.00" fill="#000000">github.com/stratumn/alice/core/service/metrics</text>
</g>
<!-- N21&#45;&gt;N15 -->
<g id="edge43" class="edge">
<title>N21&#45;&gt;N15</title>
<path fill="none" stroke="#000000" d="M460.3219,-215.8314C482.5234,-206.2018 509.9753,-194.295 533.4115,-184.1299"/>
<polygon fill="#000000" stroke="#000000" points="535.064,-187.2282 542.8455,-180.038 532.2786,-180.8062 535.064,-187.2282"/>
</g>
<!-- N24 -->
<g id="node4" class="node">
<title>N24</title>
<polygon fill="none" stroke="#000000" points="1386.1441,-108 1148.7221,-108 1148.7221,-72 1386.1441,-72 1386.1441,-108"/>
<text text-anchor="middle" x="1267.4331" y="-85.8" font-family="Times,serif" font-size="14.00" fill="#000000">github.com/stratumn/alice/grpc/grpcapi</text>
</g>
<!-- N24&#45;&gt;N19 -->
<g id="edge35" class="edge">
<title>N24&#45;&gt;N19</title>
<path fill="none" stroke="#000000" d="M1148.7936,-72.7084C1070.3845,-61.2804 968.0771,-46.3692 890.0778,-35.0008"/>
<polygon fill="#000000" stroke="#000000" points="890.1234,-31.4706 879.7232,-33.4917 889.1138,-38.3974 890.1234,-31.4706"/>
</g>
<!-- N26 -->
<g id="node5" class="node">
<title>N26</title>
<polygon fill="none" stroke="#000000" points="262.7994,-252 .0669,-252 .0669,-216 262.7994,-216 262.7994,-252"/>
<text text-anchor="middle" x="131.4331" y="-229.8" font-family="Times,serif" font-size="14.00" fill="#000000">github.com/stratumn/alice/core/service/ping</text>
</g>
<!-- N9 -->
<g id="node13" class="node">
<title>N9</title>
<polygon fill="none" stroke="#000000" points="241.5542,-180 21.312,-180 21.312,-144 241.5542,-144 241.5542,-180"/>
<text text-anchor="middle" x="131.4331" y="-157.8" font-family="Times,serif" font-size="14.00" fill="#000000">github.com/stratumn/alice/grpc/ping</text>
</g>
<!-- N26&#45;&gt;N9 -->
<g id="edge36" class="edge">
<title>N26&#45;&gt;N9</title>
<path fill="none" stroke="#000000" d="M131.4331,-215.8314C131.4331,-208.131 131.4331,-198.9743 131.4331,-190.4166"/>
<polygon fill="#000000" stroke="#000000" points="134.9332,-190.4132 131.4331,-180.4133 127.9332,-190.4133 134.9332,-190.4132"/>
</g>
<!-- N30 -->
<g id="node6" class="node">
<title>N30</title>
<polygon fill="none" stroke="#000000" points="1359.572,-180 1117.2942,-180 1117.2942,-144 1359.572,-144 1359.572,-180"/>
<text text-anchor="middle" x="1238.4331" y="-157.8" font-family="Times,serif" font-size="14.00" fill="#000000">github.com/stratumn/alice/core/manager</text>
</g>
<!-- N30&#45;&gt;N20 -->
<g id="edge41" class="edge">
<title>N30&#45;&gt;N20</title>
<path fill="none" stroke="#000000" d="M1310.4849,-143.9243C1350.9135,-133.7819 1401.5003,-121.0912 1443.4411,-110.5694"/>
<polygon fill="#000000" stroke="#000000" points="1444.5039,-113.9113 1453.3517,-108.0831 1442.8006,-107.1217 1444.5039,-113.9113"/>
</g>
<!-- N31 -->
<g id="node7" class="node">
<title>N31</title>
<polygon fill="none" stroke="#000000" points="1588.5857,-252 1304.2805,-252 1304.2805,-216 1588.5857,-216 1588.5857,-252"/>
<text text-anchor="middle" x="1446.4331" y="-229.8" font-family="Times,serif" font-size="14.00" fill="#000000">github.com/stratumn/alice/core/service/mssmux</text>
</g>
<!-- N6 -->
<g id="node8" class="node">
<title>N6</title>
<polygon fill="none" stroke="#000000" points="2129.4893,-324 1939.3769,-324 1939.3769,-288 2129.4893,-288 2129.4893,-324"/>
<text text-anchor="middle" x="2034.4331" y="-301.8" font-family="Times,serif" font-size="14.00" fill="#000000">github.com/stratumn/alice/core</text>
</g>
<!-- N6&#45;&gt;N13 -->
<g id="edge10" class="edge">
<title>N6&#45;&gt;N13</title>
<path fill="none" stroke="#000000" d="M2129.6526,-304.4345C2462.3143,-298.7927 3572.5534,-278.4664 3952.1783,-252.0401"/>
<polygon fill="#000000" stroke="#000000" points="3952.6495,-255.5155 3962.3764,-251.3159 3952.1536,-248.5331 3952.6495,-255.5155"/>
</g>
<!-- N6&#45;&gt;N21 -->
<g id="edge23" class="edge">
<title>N6&#45;&gt;N21</title>
<path fill="none" stroke="#000000" d="M1939.2209,-305.156C1705.6649,-302.5052 1085.8317,-291.9563 570.4331,-252 569.1291,-251.8989 567.8191,-251.795 566.5037,-251.6886"/>
<polygon fill="#000000" stroke="#000000" points="566.5874,-248.1831 556.3267,-250.8232 565.9942,-255.158 566.5874,-248.1831"/>
</g>
<!-- N6&#45;&gt;N26 -->
<g id="edge19" class="edge">
<title>N6&#45;&gt;N26</title>
<path fill="none" stroke="#000000" d="M1939.338,-304.3089C1624.9358,-298.5278 619.7657,-278.4786 272.9895,-252.0671"/>
<polygon fill="#000000" stroke="#000000" points="273.1646,-248.5702 262.9232,-251.2838 272.6215,-255.5491 273.1646,-248.5702"/>
</g>
<!-- N6&#45;&gt;N30 -->
<g id="edge8" class="edge">
<title>N6&#45;&gt;N30</title>
<path fill="none" stroke="#000000" d="M1939.2999,-304.3211C1749.5912,-300.2299 1337.7943,-287.3499 1284.4331,-252 1263.1585,-237.9063 1251.2103,-210.7806 1244.8579,-189.9778"/>
<polygon fill="#000000" stroke="#000000" points="1248.1531,-188.7637 1242.0994,-180.0687 1241.4095,-190.641 1248.1531,-188.7637"/>
</g>
<!-- N6&#45;&gt;N31 -->
<g id="edge17" class="edge">
<title>N6&#45;&gt;N31</title>
<path fill="none" stroke="#000000" d="M1939.3072,-294.3519C1847.2709,-283.0822 1706.2844,-265.8185 1598.6415,-252.6378"/>
<polygon fill="#000000" stroke="#000000" points="1599.0115,-249.157 1588.6602,-251.4156 1598.1606,-256.1051 1599.0115,-249.157"/>
</g>
<!-- N18 -->
<g id="node10" class="node">
<title>N18</title>
<polygon fill="none" stroke="#000000" points="1719.7683,-180 1507.0979,-180 1507.0979,-144 1719.7683,-144 1719.7683,-180"/>
<text text-anchor="middle" x="1613.4331" y="-157.8" font-family="Times,serif" font-size="14.00" fill="#000000">github.com/stratumn/alice/core/log</text>
</g>
<!-- N6&#45;&gt;N18 -->
<g id="edge7" class="edge">
<title>N6&#45;&gt;N18</title>
<path fill="none" stroke="#000000" d="M1939.3173,-302.4585C1744.6176,-294.7461 1317.0421,-275.2456 1295.4331,-252 1284.5395,-240.2813 1285.1098,-228.2241 1295.4331,-216 1308.7268,-200.2586 1411.8355,-184.7693 1497.0974,-174.4448"/>
<polygon fill="#000000" stroke="#000000" points="1497.6214,-177.9072 1507.1344,-173.2431 1496.7892,-170.9568 1497.6214,-177.9072"/>
</g>
<!-- N28 -->
<g id="node12" class="node">
<title>N28</title>
<polygon fill="none" stroke="#000000" points="1878.3514,-252 1606.5148,-252 1606.5148,-216 1878.3514,-216 1878.3514,-252"/>
<text text-anchor="middle" x="1742.4331" y="-229.8" font-family="Times,serif" font-size="14.00" fill="#000000">github.com/stratumn/alice/core/service/signal</text>
</g>
<!-- N6&#45;&gt;N28 -->
<g id="edge22" class="edge">
<title>N6&#45;&gt;N28</title>
<path fill="none" stroke="#000000" d="M1961.1261,-287.9243C1919.8279,-277.7412 1868.1116,-264.9892 1825.34,-254.4428"/>
<polygon fill="#000000" stroke="#000000" points="1826.0641,-251.0166 1815.517,-252.0207 1824.3882,-257.813 1826.0641,-251.0166"/>
</g>
<!-- N0 -->
<g id="node14" class="node">
<title>N0</title>
<polygon fill="none" stroke="#000000" points="1005.3789,-180 789.4873,-180 789.4873,-144 1005.3789,-144 1005.3789,-180"/>
<text text-anchor="middle" x="897.4331" y="-157.8" font-family="Times,serif" font-size="14.00" fill="#000000">github.com/stratumn/alice/core/p2p</text>
</g>
<!-- N6&#45;&gt;N0 -->
<g id="edge9" class="edge">
<title>N6&#45;&gt;N0</title>
<path fill="none" stroke="#000000" d="M1939.1674,-304.4102C1676.8494,-299.6325 960.7296,-283.7344 921.4331,-252 903.3274,-237.3785 897.9938,-210.7538 896.7942,-190.2422"/>
<polygon fill="#000000" stroke="#000000" points="900.2905,-190.0619 896.4979,-180.1692 893.2935,-190.2678 900.2905,-190.0619"/>
</g>
<!-- N3 -->
<g id="node16" class="node">
<title>N3</title>
<polygon fill="none" stroke="#000000" points="2172.5132,-252 1896.353,-252 1896.353,-216 2172.5132,-216 2172.5132,-252"/>
<text text-anchor="middle" x="2034.4331" y="-229.8" font-family="Times,serif" font-size="14.00" fill="#000000">github.com/stratumn/alice/core/service/yamux</text>
</g>
<!-- N6&#45;&gt;N3 -->
<g id="edge24" class="edge">
<title>N6&#45;&gt;N3</title>
<path fill="none" stroke="#000000" d="M2034.4331,-287.8314C2034.4331,-280.131 2034.4331,-270.9743 2034.4331,-262.4166"/>
<polygon fill="#000000" stroke="#000000" points="2037.9332,-262.4132 2034.4331,-252.4133 2030.9332,-262.4133 2037.9332,-262.4132"/>
</g>
<!-- N10 -->
<g id="node19" class="node">
<title>N10</title>
<polygon fill="none" stroke="#000000" points="2464.4482,-252 2190.418,-252 2190.418,-216 2464.4482,-216 2464.4482,-252"/>
<text text-anchor="middle" x="2327.4331" y="-229.8" font-family="Times,serif" font-size="14.00" fill="#000000">github.com/stratumn/alice/core/service/pruner</text>
</g>
<!-- N6&#45;&gt;N10 -->
<g id="edge20" class="edge">
<title>N6&#45;&gt;N10</title>
<path fill="none" stroke="#000000" d="M2107.9912,-287.9243C2149.4308,-277.7412 2201.3242,-264.9892 2244.2422,-254.4428"/>
<polygon fill="#000000" stroke="#000000" points="2245.2231,-257.806 2254.0989,-252.0207 2243.5526,-251.0082 2245.2231,-257.806"/>
</g>
<!-- N14 -->
<g id="node20" class="node">
<title>N14</title>
<polygon fill="none" stroke="#000000" points="2770.1754,-252 2482.6908,-252 2482.6908,-216 2770.1754,-216 2770.1754,-252"/>
<text text-anchor="middle" x="2626.4331" y="-229.8" font-family="Times,serif" font-size="14.00" fill="#000000">github.com/stratumn/alice/core/service/connmgr</text>
</g>
<!-- N6&#45;&gt;N14 -->
<g id="edge11" class="edge">
<title>N6&#45;&gt;N14</title>
<path fill="none" stroke="#000000" d="M2129.5481,-294.432C2222.0184,-283.1856 2364.0131,-265.9159 2472.5658,-252.7136"/>
<polygon fill="#000000" stroke="#000000" points="2473.1278,-256.1711 2482.632,-251.4893 2472.2826,-249.2223 2473.1278,-256.1711"/>
</g>
<!-- N2 -->
<g id="node21" class="node">
<title>N2</title>
<polygon fill="none" stroke="#000000" points="4520.7546,-252 4308.1116,-252 4308.1116,-216 4520.7546,-216 4520.7546,-252"/>
<text text-anchor="middle" x="4414.4331" y="-229.8" font-family="Times,serif" font-size="14.00" fill="#000000">github.com/stratumn/alice/core/cfg</text>
</g>
<!-- N6&#45;&gt;N2 -->
<g id="edge6" class="edge">
<title>N6&#45;&gt;N2</title>
<path fill="none" stroke="#000000" d="M2129.7872,-305.3116C2502.8515,-302.3718 3864.0783,-289.2709 4294.4331,-252 4295.5612,-251.9023 4296.6948,-251.8008 4297.8333,-251.6956"/>
<polygon fill="#000000" stroke="#000000" points="4298.5883,-255.1375 4308.189,-250.6567 4297.8895,-248.1725 4298.5883,-255.1375"/>
</g>
<!-- N25 -->
<g id="node24" class="node">
<title>N25</title>
<polygon fill="none" stroke="#000000" points="3064.5132,-252 2788.353,-252 2788.353,-216 3064.5132,-216 3064.5132,-252"/>
<text text-anchor="middle" x="2926.4331" y="-229.8" font-family="Times,serif" font-size="14.00" fill="#000000">github.com/stratumn/alice/core/service/kaddht</text>
</g>
<!-- N6&#45;&gt;N25 -->
<g id="edge15" class="edge">
<title>N6&#45;&gt;N25</title>
<path fill="none" stroke="#000000" d="M2129.5248,-300.6185C2269.2642,-292.3731 2538.5404,-275.2034 2778.048,-252.1087"/>
<polygon fill="#000000" stroke="#000000" points="2778.7341,-255.5587 2788.3497,-251.1099 2778.0585,-248.5913 2778.7341,-255.5587"/>
</g>
<!-- N29 -->
<g id="node25" class="node">
<title>N29</title>
<polygon fill="none" stroke="#000000" points="1210.3892,-252 930.477,-252 930.477,-216 1210.3892,-216 1210.3892,-252"/>
<text text-anchor="middle" x="1070.4331" y="-229.8" font-family="Times,serif" font-size="14.00" fill="#000000">github.com/stratumn/alice/core/service/grpcapi</text>
</g>
<!-- N6&#45;&gt;N29 -->
<g id="edge12" class="edge">
<title>N6&#45;&gt;N29</title>
<path fill="none" stroke="#000000" d="M1939.2299,-301.1926C1787.7256,-293.1956 1482.4981,-275.6691 1224.4331,-252 1223.1515,-251.8825 1221.864,-251.763 1220.5713,-251.6418"/>
<polygon fill="#000000" stroke="#000000" points="1220.8598,-248.1535 1210.5705,-250.6796 1220.1893,-255.1213 1220.8598,-248.1535"/>
</g>
<!-- N7 -->
<g id="node26" class="node">
<title>N7</title>
<polygon fill="none" stroke="#000000" points="3363.955,-252 3082.9112,-252 3082.9112,-216 3363.955,-216 3363.955,-252"/>
<text text-anchor="middle" x="3223.4331" y="-229.8" font-family="Times,serif" font-size="14.00" fill="#000000">github.com/stratumn/alice/core/service/identify</text>
</g>
<!-- N6&#45;&gt;N7 -->
<g id="edge14" class="edge">
<title>N6&#45;&gt;N7</title>
<path fill="none" stroke="#000000" d="M2129.8416,-303.1957C2311.27,-297.3903 2718.7005,-282.0877 3072.354,-252.0581"/>
<polygon fill="#000000" stroke="#000000" points="3072.8721,-255.5267 3082.5378,-251.188 3072.2761,-248.5521 3072.8721,-255.5267"/>
</g>
<!-- N12 -->
<g id="node27" class="node">
<title>N12</title>
<polygon fill="none" stroke="#000000" points="874.2477,-252 612.6185,-252 612.6185,-216 874.2477,-216 874.2477,-252"/>
<text text-anchor="middle" x="743.4331" y="-229.8" font-family="Times,serif" font-size="14.00" fill="#000000">github.com/stratumn/alice/core/service/host</text>
</g>
<!-- N6&#45;&gt;N12 -->
<g id="edge13" class="edge">
<title>N6&#45;&gt;N12</title>
<path fill="none" stroke="#000000" d="M1939.1873,-303.9723C1742.5278,-299.2437 1277.4049,-285.2584 888.4331,-252 887.118,-251.8876 885.7965,-251.7722 884.4694,-251.6542"/>
<polygon fill="#000000" stroke="#000000" points="884.4787,-248.1401 874.1976,-250.6993 883.8306,-255.11 884.4787,-248.1401"/>
</g>
<!-- N6&#45;&gt;N15 -->
<g id="edge16" class="edge">
<title>N6&#45;&gt;N15</title>
<path fill="none" stroke="#000000" d="M1939.1915,-305.5969C1627.4377,-303.8639 654.4817,-295.0176 603.4331,-252 585.8587,-237.1904 582.0392,-210.5891 582.0635,-190.1341"/>
<polygon fill="#000000" stroke="#000000" points="585.5632,-190.1961 582.3741,-180.0927 578.5665,-189.9796 585.5632,-190.1961"/>
</g>
<!-- N23 -->
<g id="node29" class="node">
<title>N23</title>
<polygon fill="none" stroke="#000000" points="3648.3892,-252 3382.477,-252 3382.477,-216 3648.3892,-216 3648.3892,-252"/>
<text text-anchor="middle" x="3515.4331" y="-229.8" font-family="Times,serif" font-size="14.00" fill="#000000">github.com/stratumn/alice/core/service/relay</text>
</g>
<!-- N6&#45;&gt;N23 -->
<g id="edge21" class="edge">
<title>N6&#45;&gt;N23</title>
<path fill="none" stroke="#000000" d="M2129.5797,-304.9635C2347.5751,-301.9811 2900.0986,-290.9703 3372.3489,-252.0466"/>
<polygon fill="#000000" stroke="#000000" points="3372.7623,-255.5244 3382.4388,-251.2097 3372.1836,-248.5484 3372.7623,-255.5244"/>
</g>
<!-- N27 -->
<g id="node30" class="node">
<title>N27</title>
<polygon fill="none" stroke="#000000" points="3944.0652,-252 3666.801,-252 3666.801,-216 3944.0652,-216 3944.0652,-252"/>
<text text-anchor="middle" x="3805.4331" y="-229.8" font-family="Times,serif" font-size="14.00" fill="#000000">github.com/stratumn/alice/core/service/natmgr</text>
</g>
<!-- N6&#45;&gt;N27 -->
<g id="edge18" class="edge">
<title>N6&#45;&gt;N27</title>
<path fill="none" stroke="#000000" d="M2129.4936,-303.9352C2426.8165,-297.3058 3337.6926,-275.6522 3656.257,-252.0365"/>
<polygon fill="#000000" stroke="#000000" points="3656.7166,-255.5118 3666.4237,-251.2665 3656.1879,-248.5318 3656.7166,-255.5118"/>
</g>
<!-- N6&#45;&gt;N22 -->
<g id="edge25" class="edge">
<title>N6&#45;&gt;N22</title>
<path fill="none" stroke="#000000" d="M2129.7579,-305.4877C2550.672,-303.0031 4223.6563,-290.7039 4261.4331,-252 4281.4903,-231.4505 4256.262,-204.915 4231.0448,-185.9925"/>
<polygon fill="#000000" stroke="#000000" points="4233.0743,-183.1409 4222.9152,-180.1335 4228.9816,-188.8198 4233.0743,-183.1409"/>
</g>
<!-- N8 -->
<g id="node9" class="node">
<title>N8</title>
<polygon fill="none" stroke="#000000" points="1130.651,-108 900.2152,-108 900.2152,-72 1130.651,-72 1130.651,-108"/>
<text text-anchor="middle" x="1015.4331" y="-85.8" font-family="Times,serif" font-size="14.00" fill="#000000">github.com/stratumn/alice/core/netutil</text>
</g>
<!-- N28&#45;&gt;N18 -->
<g id="edge30" class="edge">
<title>N28&#45;&gt;N18</title>
<path fill="none" stroke="#000000" d="M1709.881,-215.8314C1693.2283,-206.5368 1672.7746,-195.1208 1654.9946,-185.1971"/>
<polygon fill="#000000" stroke="#000000" points="1656.4126,-181.9803 1645.9748,-180.1628 1653.001,-188.0927 1656.4126,-181.9803"/>
</g>
<!-- N9&#45;&gt;N19 -->
<g id="edge2" class="edge">
<title>N9&#45;&gt;N19</title>
<path fill="none" stroke="#000000" d="M129.5038,-143.711C128.4398,-122.9856 130.3448,-89.783 150.4331,-72 187.4263,-39.2521 486.8035,-25.7729 656.7192,-20.7175"/>
<polygon fill="#000000" stroke="#000000" points="657.0736,-24.2088 666.9671,-20.4182 656.8691,-17.2118 657.0736,-24.2088"/>
</g>
<!-- N1&#45;&gt;N19 -->
<g id="edge37" class="edge">
<title>N1&#45;&gt;N19</title>
<path fill="none" stroke="#000000" d="M391.5635,-73.2101C471.3566,-61.6737 576.8941,-46.4153 656.7959,-34.8632"/>
<polygon fill="#000000" stroke="#000000" points="657.5071,-38.2969 666.9034,-33.4019 656.5054,-31.3689 657.5071,-38.2969"/>
</g>
<!-- N16 -->
<g id="node17" class="node">
<title>N16</title>
<polygon fill="none" stroke="#000000" points="3305.5098,-468 3143.3564,-468 3143.3564,-432 3305.5098,-432 3305.5098,-468"/>
<text text-anchor="middle" x="3224.4331" y="-445.8" font-family="Times,serif" font-size="14.00" fill="#000000">github.com/stratumn/alice</text>
</g>
<!-- N4 -->
<g id="node31" class="node">
<title>N4</title>
<polygon fill="none" stroke="#000000" points="3319.5029,-396 3129.3633,-396 3129.3633,-360 3319.5029,-360 3319.5029,-396"/>
<text text-anchor="middle" x="3224.4331" y="-373.8" font-family="Times,serif" font-size="14.00" fill="#000000">github.com/stratumn/alice/cmd</text>
</g>
<!-- N16&#45;&gt;N4 -->
<g id="edge45" class="edge">
<title>N16&#45;&gt;N4</title>
<path fill="none" stroke="#000000" d="M3224.4331,-431.8314C3224.4331,-424.131 3224.4331,-414.9743 3224.4331,-406.4166"/>
<polygon fill="#000000" stroke="#000000" points="3227.9332,-406.4132 3224.4331,-396.4133 3220.9332,-406.4133 3227.9332,-406.4132"/>
</g>
<!-- N17 -->
<g id="node18" class="node">
<title>N17</title>
<polygon fill="none" stroke="#000000" points="4571.8927,-324 4390.9735,-324 4390.9735,-288 4571.8927,-288 4571.8927,-324"/>
<text text-anchor="middle" x="4481.4331" y="-301.8" font-family="Times,serif" font-size="14.00" fill="#000000">github.com/stratumn/alice/cli</text>
</g>
<!-- N17&#45;&gt;N19 -->
<g id="edge39" class="edge">
<title>N17&#45;&gt;N19</title>
<path fill="none" stroke="#000000" d="M4513.711,-287.8412C4526.3756,-278.8521 4539.5147,-266.742 4546.4331,-252 4553.2306,-237.5157 4555.9913,-228.8312 4546.4331,-216 4479.6516,-126.3506 4415.7406,-162.1395 4305.4331,-144 3962.7135,-87.6414 1463.2555,-32.4106 890.2613,-20.4003"/>
<polygon fill="#000000" stroke="#000000" points="889.995,-16.8941 879.9239,-20.1839 889.8484,-23.8925 889.995,-16.8941"/>
</g>
<!-- N17&#45;&gt;N2 -->
<g id="edge38" class="edge">
<title>N17&#45;&gt;N2</title>
<path fill="none" stroke="#000000" d="M4464.5262,-287.8314C4456.6518,-279.3694 4447.1411,-269.1489 4438.5318,-259.8971"/>
<polygon fill="#000000" stroke="#000000" points="4440.9423,-257.3497 4431.5677,-252.4133 4435.8178,-262.1183 4440.9423,-257.3497"/>
</g>
<!-- N17&#45;&gt;N22 -->
<g id="edge40" class="edge">
<title>N17&#45;&gt;N22</title>
<path fill="none" stroke="#000000" d="M4503.2467,-287.6954C4523.5754,-268.4496 4548.1542,-237.9701 4529.4331,-216 4514.8207,-198.8517 4398.3375,-182.9677 4306.5661,-172.9292"/>
<polygon fill="#000000" stroke="#000000" points="4306.6745,-169.4206 4296.3561,-171.8251 4305.9219,-176.38 4306.6745,-169.4206"/>
</g>
<!-- N5 -->
<g id="node22" class="node">
<title>N5</title>
<polygon fill="none" stroke="#000000" points="645.872,-108 408.9942,-108 408.9942,-72 645.872,-72 645.872,-108"/>
<text text-anchor="middle" x="527.4331" y="-85.8" font-family="Times,serif" font-size="14.00" fill="#000000">github.com/stratumn/alice/grpc/metrics</text>
</g>
<!-- N5&#45;&gt;N19 -->
<g id="edge42" class="edge">
<title>N5&#45;&gt;N19</title>
<path fill="none" stroke="#000000" d="M589.1918,-71.9243C623.4063,-61.9103 666.1087,-49.412 701.7855,-38.97"/>
<polygon fill="#000000" stroke="#000000" points="703.0348,-42.2513 711.649,-36.0831 701.0685,-35.5331 703.0348,-42.2513"/>
</g>
<!-- N11 -->
<g id="node23" class="node">
<title>N11</title>
<polygon fill="none" stroke="#000000" points="882.5029,-108 664.3633,-108 664.3633,-72 882.5029,-72 882.5029,-108"/>
<text text-anchor="middle" x="773.4331" y="-85.8" font-family="Times,serif" font-size="14.00" fill="#000000">github.com/stratumn/alice/grpc/host</text>
</g>
<!-- N11&#45;&gt;N19 -->
<g id="edge1" class="edge">
<title>N11&#45;&gt;N19</title>
<path fill="none" stroke="#000000" d="M773.4331,-71.8314C773.4331,-64.131 773.4331,-54.9743 773.4331,-46.4166"/>
<polygon fill="#000000" stroke="#000000" points="776.9332,-46.4132 773.4331,-36.4133 769.9332,-46.4133 776.9332,-46.4132"/>
</g>
<!-- N29&#45;&gt;N24 -->
<g id="edge33" class="edge">
<title>N29&#45;&gt;N24</title>
<path fill="none" stroke="#000000" d="M1073.499,-215.9256C1077.8432,-195.7146 1087.6958,-163.2933 1108.4331,-144 1123.7264,-129.7716 1142.9148,-119.2777 1162.6197,-111.5424"/>
<polygon fill="#000000" stroke="#000000" points="1163.842,-114.8222 1172.0073,-108.071 1161.4141,-108.2567 1163.842,-114.8222"/>
</g>
<!-- N29&#45;&gt;N30 -->
<g id="edge31" class="edge">
<title>N29&#45;&gt;N30</title>
<path fill="none" stroke="#000000" d="M1112.8266,-215.8314C1135.3955,-206.159 1163.3252,-194.1891 1187.1128,-183.9944"/>
<polygon fill="#000000" stroke="#000000" points="1188.5317,-187.1943 1196.3445,-180.038 1185.7743,-180.7602 1188.5317,-187.1943"/>
</g>
<!-- N29&#45;&gt;N8 -->
<g id="edge32" class="edge">
<title>N29&#45;&gt;N8</title>
<path fill="none" stroke="#000000" d="M1063.4673,-215.7623C1054.0036,-190.9846 1037.002,-146.4714 1025.9724,-117.5939"/>
<polygon fill="#000000" stroke="#000000" points="1029.1801,-116.1826 1022.3423,-108.0896 1022.6408,-118.6803 1029.1801,-116.1826"/>
</g>
<!-- N29&#45;&gt;N22 -->
<g id="edge34" class="edge">
<title>N29&#45;&gt;N22</title>
<path fill="none" stroke="#000000" d="M1210.475,-221.4621C1238.5889,-219.3214 1267.9374,-217.3547 1295.4331,-216 1852.1983,-188.5679 3615.8352,-168.1722 4080.3816,-163.18"/>
<polygon fill="#000000" stroke="#000000" points="4080.4892,-166.6792 4090.4511,-163.072 4080.4141,-159.6796 4080.4892,-166.6792"/>
</g>
<!-- N12&#45;&gt;N0 -->
<g id="edge26" class="edge">
<title>N12&#45;&gt;N0</title>
<path fill="none" stroke="#000000" d="M782.2938,-215.8314C802.7073,-206.2874 827.9054,-194.5065 849.5191,-184.4013"/>
<polygon fill="#000000" stroke="#000000" points="851.2754,-187.4439 858.8518,-180.038 848.3106,-181.1027 851.2754,-187.4439"/>
</g>
<!-- N12&#45;&gt;N11 -->
<g id="edge28" class="edge">
<title>N12&#45;&gt;N11</title>
<path fill="none" stroke="#000000" d="M747.2326,-215.7623C752.3721,-191.0928 761.5873,-146.8598 767.6054,-117.9731"/>
<polygon fill="#000000" stroke="#000000" points="771.0512,-118.5933 769.6644,-108.0896 764.1984,-117.1656 771.0512,-118.5933"/>
</g>
<!-- N12&#45;&gt;N15 -->
<g id="edge27" class="edge">
<title>N12&#45;&gt;N15</title>
<path fill="none" stroke="#000000" d="M703.3107,-215.8314C682.1399,-206.2446 655.9848,-194.4008 633.6028,-184.2655"/>
<polygon fill="#000000" stroke="#000000" points="634.8203,-180.9748 624.267,-180.038 631.9328,-187.3515 634.8203,-180.9748"/>
</g>
<!-- N15&#45;&gt;N8 -->
<g id="edge46" class="edge">
<title>N15&#45;&gt;N8</title>
<path fill="none" stroke="#000000" d="M692.3584,-143.9707C754.7246,-133.5522 833.2577,-120.433 897.2788,-109.7381"/>
<polygon fill="#000000" stroke="#000000" points="898.1379,-113.1431 907.4245,-108.0432 896.9844,-106.2388 898.1379,-113.1431"/>
</g>
<!-- N15&#45;&gt;N5 -->
<g id="edge47" class="edge">
<title>N15&#45;&gt;N5</title>
<path fill="none" stroke="#000000" d="M570.0496,-143.8314C563.4845,-135.5386 555.5824,-125.557 548.3753,-116.4533"/>
<polygon fill="#000000" stroke="#000000" points="550.9615,-114.0813 542.0103,-108.4133 545.4732,-118.4262 550.9615,-114.0813"/>
</g>
<!-- N4&#45;&gt;N6 -->
<g id="edge5" class="edge">
<title>N4&#45;&gt;N6</title>
<path fill="none" stroke="#000000" d="M3129.062,-372.2296C2909.3726,-358.9375 2368.9774,-326.2413 2139.8544,-312.3784"/>
<polygon fill="#000000" stroke="#000000" points="2140.0375,-308.8832 2129.8443,-311.7728 2139.6147,-315.8704 2140.0375,-308.8832"/>
</g>
<!-- N4&#45;&gt;N17 -->
<g id="edge4" class="edge">
<title>N4&#45;&gt;N17</title>
<path fill="none" stroke="#000000" d="M3319.6857,-372.544C3551.6259,-359.2586 4144.0251,-325.3265 4381.1168,-311.746"/>
<polygon fill="#000000" stroke="#000000" points="4381.3277,-315.2398 4391.1112,-311.1736 4380.9274,-308.2512 4381.3277,-315.2398"/>
</g>
</g>
</svg>
